<svg width="1024" height="1024" viewBox="0 0 1024 1024" xmlns="http://www.w3.org/2000/svg">
  <rect width="1024" height="1024" rx="512" fill="white"/>
  <path
    d="M951.799 512C951.799 774.335 747.91 987 496.399 987C244.889 987 41 774.335 41 512C41 249.665 244.889 37 496.399 37C747.91 37 951.799 249.665 951.799 512Z"
    fill="#7DBE3B"/>
  <path
    d="M951.831 536.168C951.831 751.05 784.823 925.247 578.808 925.247C372.792 925.247 205.784 751.05 205.784 536.168C205.784 321.286 372.792 147.09 578.808 147.09C784.823 147.09 951.831 321.286 951.831 536.168Z"
    fill="#448C0D"/>
  <path
    d="M982.904 536.167C982.904 768.956 801.978 957.669 578.795 957.669C355.612 957.669 174.687 768.956 174.687 536.167C174.687 303.378 355.612 114.665 578.795 114.665C801.978 114.665 982.904 303.378 982.904 536.167ZM578.795 925.245C784.81 925.245 951.819 751.049 951.819 536.167C951.819 321.285 784.81 147.088 578.795 147.088C372.78 147.088 205.772 321.285 205.772 536.167C205.772 751.049 372.78 925.245 578.795 925.245Z"
    fill="white"/>
  <path
    d="M945.759 489.38C945.759 664.27 814.109 806.047 651.711 806.047C489.313 806.047 357.664 664.27 357.664 489.38C357.664 314.49 489.313 172.713 651.711 172.713C814.109 172.713 945.759 314.49 945.759 489.38Z"
    fill="white"/>
  <path
    d="M970.409 489.261C970.409 671.016 829.148 818.357 654.894 818.357C480.639 818.357 339.378 671.016 339.378 489.261C339.378 307.507 480.639 160.166 654.894 160.166C829.148 160.166 970.409 307.507 970.409 489.261ZM654.894 785.934C811.98 785.934 939.324 653.109 939.324 489.261C939.324 325.414 811.98 192.589 654.894 192.589C497.807 192.589 370.463 325.414 370.463 489.261C370.463 653.109 497.807 785.934 654.894 785.934Z"
    fill="white"/>
</svg>
