<svg width="167" height="32" viewBox="0 0 167 32" fill="none" xmlns="http://www.w3.org/2000/svg">
  <path
    d="M11.2657 32C9.11172 32 7.18452 31.488 5.48404 30.464C3.78356 29.44 2.43735 28.0462 1.44541 26.2827C0.481802 24.5191 0 22.5138 0 20.2667C0 18.048 0.481802 16.0569 1.44541 14.2933C2.43735 12.5013 3.78356 11.0933 5.48404 10.0693C7.18452 9.04533 9.11172 8.53333 11.2657 8.53333C13.2779 8.53333 15.1201 8.90311 16.7922 9.64267C18.4643 10.3822 19.768 11.4062 20.7033 12.7147L17.3874 16.7253C16.9906 16.1849 16.4946 15.7013 15.8995 15.2747C15.3043 14.8196 14.6524 14.464 13.9439 14.208C13.2637 13.952 12.5552 13.824 11.8183 13.824C10.6563 13.824 9.62187 14.1084 8.71495 14.6773C7.83637 15.2178 7.142 15.9716 6.63186 16.9387C6.12172 17.9058 5.86665 19.0151 5.86665 20.2667C5.86665 21.4898 6.12172 22.5849 6.63186 23.552C7.17035 24.4907 7.89305 25.2587 8.79997 25.856C9.70689 26.4249 10.7272 26.7093 11.8608 26.7093C12.5977 26.7093 13.2921 26.6098 13.9439 26.4107C14.5958 26.1831 15.2051 25.856 15.7719 25.4293C16.3671 25.0027 16.9056 24.4907 17.3874 23.8933L20.6608 27.904C19.6972 29.1271 18.3652 30.1227 16.6647 30.8907C14.9642 31.6302 13.1645 32 11.2657 32Z"
    fill="#7DBE3B"/>
  <path
    d="M24.529 31.5733V9.00267H30.3532L30.5657 16.256L29.5455 14.7627C29.8856 13.5964 30.4382 12.544 31.2034 11.6053C31.9686 10.6382 32.8614 9.88444 33.8817 9.344C34.9303 8.80356 36.0214 8.53333 37.1551 8.53333C37.6369 8.53333 38.1045 8.576 38.558 8.66133C39.0114 8.74667 39.3941 8.84622 39.7058 8.96L38.0904 15.616C37.7503 15.4453 37.3393 15.3031 36.8575 15.1893C36.3757 15.0471 35.8797 14.976 35.3696 14.976C34.6894 14.976 34.0517 15.104 33.4566 15.36C32.8897 15.5876 32.3938 15.9289 31.9686 16.384C31.5435 16.8107 31.2034 17.3227 30.9484 17.92C30.7216 18.5173 30.6083 19.1716 30.6083 19.8827V31.5733H24.529Z"
    fill="#7DBE3B"/>
  <path
    d="M52.6726 32C50.377 32 48.3222 31.5022 46.5084 30.5067C44.7229 29.4827 43.3058 28.0889 42.2572 26.3253C41.2369 24.5618 40.7268 22.5422 40.7268 20.2667C40.7268 17.9911 41.2369 15.9858 42.2572 14.2507C43.3058 12.4871 44.7229 11.0933 46.5084 10.0693C48.3222 9.04533 50.377 8.53333 52.6726 8.53333C54.9399 8.53333 56.9663 9.04533 58.7518 10.0693C60.5657 11.0933 61.9827 12.4871 63.003 14.2507C64.0233 15.9858 64.5334 17.9911 64.5334 20.2667C64.5334 22.5422 64.0233 24.5618 63.003 26.3253C61.9827 28.0889 60.5657 29.4827 58.7518 30.5067C56.9663 31.5022 54.9399 32 52.6726 32ZM52.6726 26.7093C53.7779 26.7093 54.7699 26.4391 55.6485 25.8987C56.527 25.3298 57.2072 24.5618 57.689 23.5947C58.1992 22.5991 58.4542 21.4898 58.4542 20.2667C58.4542 19.0151 58.1992 17.9058 57.689 16.9387C57.2072 15.9431 56.527 15.1751 55.6485 14.6347C54.7699 14.0658 53.7779 13.7813 52.6726 13.7813C51.539 13.7813 50.5328 14.0658 49.6543 14.6347C48.7757 15.2036 48.0813 15.9716 47.5712 16.9387C47.061 17.9058 46.8201 19.0151 46.8485 20.2667C46.8201 21.4898 47.061 22.5991 47.5712 23.5947C48.0813 24.5618 48.7757 25.3298 49.6543 25.8987C50.5328 26.4391 51.539 26.7093 52.6726 26.7093Z"
    fill="#7DBE3B"/>
  <path
    d="M78.853 32C76.6991 32 74.7718 31.488 73.0714 30.464C71.3709 29.44 70.0247 28.0462 69.0327 26.2827C68.0691 24.5191 67.5873 22.5138 67.5873 20.2667C67.5873 18.048 68.0691 16.0569 69.0327 14.2933C70.0247 12.5013 71.3709 11.0933 73.0714 10.0693C74.7718 9.04533 76.6991 8.53333 78.853 8.53333C80.8652 8.53333 82.7074 8.90311 84.3795 9.64267C86.0517 10.3822 87.3554 11.4062 88.2906 12.7147L84.9747 16.7253C84.5779 16.1849 84.082 15.7013 83.4868 15.2747C82.8916 14.8196 82.2398 14.464 81.5312 14.208C80.8511 13.952 80.1425 13.824 79.4056 13.824C78.2437 13.824 77.2092 14.1084 76.3023 14.6773C75.4237 15.2178 74.7293 15.9716 74.2192 16.9387C73.709 17.9058 73.454 19.0151 73.454 20.2667C73.454 21.4898 73.709 22.5849 74.2192 23.552C74.7577 24.4907 75.4804 25.2587 76.3873 25.856C77.2942 26.4249 78.3145 26.7093 79.4482 26.7093C80.185 26.7093 80.8794 26.6098 81.5312 26.4107C82.1831 26.1831 82.7924 25.856 83.3593 25.4293C83.9544 25.0027 84.4929 24.4907 84.9747 23.8933L88.2481 27.904C87.2845 29.1271 85.9525 30.1227 84.252 30.8907C82.5515 31.6302 80.7519 32 78.853 32Z"
    fill="#7DBE3B"/>
  <path
    d="M102.574 32C100.279 32 98.2239 31.5022 96.4101 30.5067C94.6246 29.4827 93.2075 28.0889 92.1589 26.3253C91.1386 24.5618 90.6285 22.5422 90.6285 20.2667C90.6285 17.9911 91.1386 15.9858 92.1589 14.2507C93.2075 12.4871 94.6246 11.0933 96.4101 10.0693C98.2239 9.04533 100.279 8.53333 102.574 8.53333C104.842 8.53333 106.868 9.04533 108.654 10.0693C110.467 11.0933 111.884 12.4871 112.905 14.2507C113.925 15.9858 114.435 17.9911 114.435 20.2667C114.435 22.5422 113.925 24.5618 112.905 26.3253C111.884 28.0889 110.467 29.4827 108.654 30.5067C106.868 31.5022 104.842 32 102.574 32ZM102.574 26.7093C103.68 26.7093 104.672 26.4391 105.55 25.8987C106.429 25.3298 107.109 24.5618 107.591 23.5947C108.101 22.5991 108.356 21.4898 108.356 20.2667C108.356 19.0151 108.101 17.9058 107.591 16.9387C107.109 15.9431 106.429 15.1751 105.55 14.6347C104.672 14.0658 103.68 13.7813 102.574 13.7813C101.441 13.7813 100.435 14.0658 99.556 14.6347C98.6774 15.2036 97.983 15.9716 97.4729 16.9387C96.9627 17.9058 96.7218 19.0151 96.7502 20.2667C96.7218 21.4898 96.9627 22.5991 97.4729 23.5947C97.983 24.5618 98.6774 25.3298 99.556 25.8987C100.435 26.4391 101.441 26.7093 102.574 26.7093Z"
    fill="#7DBE3B"/>
  <path
    d="M127.777 32C125.821 32 124.064 31.5022 122.505 30.5067C120.947 29.4827 119.714 28.1031 118.807 26.368C117.928 24.6044 117.489 22.5707 117.489 20.2667C117.489 18.0196 117.928 16.0142 118.807 14.2507C119.714 12.4871 120.932 11.0933 122.463 10.0693C124.022 9.04533 125.793 8.53333 127.777 8.53333C128.826 8.53333 129.832 8.704 130.795 9.04533C131.787 9.35822 132.666 9.79911 133.431 10.368C134.225 10.9369 134.862 11.5769 135.344 12.288C135.826 12.9707 136.095 13.696 136.152 14.464L134.621 14.72V0H140.658V31.5733H134.961L134.706 26.368L135.897 26.496C135.84 27.2071 135.585 27.8898 135.131 28.544C134.678 29.1982 134.069 29.7956 133.303 30.336C132.567 30.848 131.716 31.2604 130.753 31.5733C129.817 31.8578 128.826 32 127.777 32ZM129.137 26.9653C130.271 26.9653 131.263 26.6809 132.113 26.112C132.963 25.5431 133.629 24.7609 134.111 23.7653C134.593 22.7698 134.834 21.6036 134.834 20.2667C134.834 18.9582 134.593 17.8062 134.111 16.8107C133.629 15.7867 132.963 15.0044 132.113 14.464C131.263 13.8951 130.271 13.6107 129.137 13.6107C128.004 13.6107 127.012 13.8951 126.161 14.464C125.34 15.0044 124.688 15.7867 124.206 16.8107C123.752 17.8062 123.526 18.9582 123.526 20.2667C123.526 21.6036 123.752 22.7698 124.206 23.7653C124.688 24.7609 125.34 25.5431 126.161 26.112C127.012 26.6809 128.004 26.9653 129.137 26.9653Z"
    fill="#7DBE3B"/>
  <path
    d="M157.214 32C154.776 32 152.651 31.5022 150.837 30.5067C149.023 29.5111 147.606 28.1458 146.586 26.4107C145.565 24.6756 145.055 22.6844 145.055 20.4373C145.055 18.7022 145.339 17.1093 145.906 15.6587C146.472 14.208 147.266 12.9564 148.286 11.904C149.307 10.8231 150.511 9.99822 151.9 9.42933C153.317 8.832 154.847 8.53333 156.491 8.53333C158.021 8.53333 159.439 8.81778 160.742 9.38667C162.046 9.92711 163.165 10.7093 164.101 11.7333C165.064 12.7289 165.801 13.9093 166.311 15.2747C166.821 16.64 167.048 18.1333 166.992 19.7547L166.949 21.632H148.881L147.904 17.92H161.975L161.295 18.688V17.7493C161.238 16.9813 160.983 16.2844 160.53 15.6587C160.105 15.0329 159.552 14.5493 158.872 14.208C158.192 13.8667 157.426 13.696 156.576 13.696C155.329 13.696 154.266 13.9378 153.388 14.4213C152.537 14.9049 151.886 15.616 151.432 16.5547C150.979 17.4933 150.752 18.6311 150.752 19.968C150.752 21.3333 151.035 22.5138 151.602 23.5093C152.197 24.5049 153.019 25.2871 154.068 25.856C155.145 26.3964 156.406 26.6667 157.851 26.6667C158.843 26.6667 159.75 26.5102 160.572 26.1973C161.394 25.8844 162.273 25.344 163.208 24.576L166.099 28.6293C165.277 29.3689 164.37 29.9947 163.378 30.5067C162.386 30.9902 161.366 31.36 160.317 31.616C159.269 31.872 158.234 32 157.214 32Z"
    fill="#7DBE3B"/>
</svg>
