<svg width="160" height="160" viewBox="0 0 160 160" fill="none" xmlns="http://www.w3.org/2000/svg">
  <path
    d="M32.5875 17.5875C24.315 17.5875 17.5875 24.315 17.5875 32.5875C17.5875 40.86 24.315 47.5875 32.5875 47.5875C40.86 47.5875 47.5875 40.86 47.5875 32.5875C47.5875 24.315 40.86 17.5875 32.5875 17.5875ZM32.5875 42.5875C27.0725 42.5875 22.5875 38.1025 22.5875 32.5875C22.5875 27.0725 27.0725 22.5875 32.5875 22.5875C38.1025 22.5875 42.5875 27.0725 42.5875 32.5875C42.5875 38.1025 38.1025 42.5875 32.5875 42.5875Z"
    fill="#7DBE3B"/>
  <path
    d="M144.268 121.767L140.733 118.232L122.5 136.465L119.268 133.232L115.733 136.767L122.5 143.535L144.268 121.767Z"
    fill="#7DBE3B"/>
  <path d="M87.5 30H92.5V35H87.5V30Z" fill="#7DBE3B"/>
  <path d="M117.5 30H122.5V35H117.5V30Z" fill="#7DBE3B"/>
  <path d="M107.5 30H112.5V35H107.5V30Z" fill="#7DBE3B"/>
  <path d="M97.5 30H102.5V35H97.5V30Z" fill="#7DBE3B"/>
  <path
    d="M60 92.5H100C104.135 92.5 107.5 89.135 107.5 85V82.5H140C149.648 82.5 157.5 74.65 157.5 65V47.5C157.5 37.85 149.648 30 140 30H132.5V27.5C132.5 23.365 129.135 20 125 20H85C80.865 20 77.5 23.365 77.5 27.5V30H62.5875V25.68L56.025 23.8875C55.81 23.3125 55.57 22.74 55.31 22.175L58.6875 16.26L48.9175 6.48999L43.005 9.86499C42.4375 9.60499 41.8675 9.36499 41.2925 9.14999L39.4975 2.58749H25.68L23.885 9.14999C23.31 9.36499 22.74 9.60249 22.175 9.86499L16.26 6.48999L6.49 16.26L9.865 22.175C9.605 22.74 9.365 23.3125 9.15 23.8875L2.5875 25.68V39.495L9.15 41.29C9.365 41.865 9.605 42.4375 9.865 43.0025L6.4875 48.9175L16.2575 58.685L22.1725 55.31C22.7375 55.57 23.3075 55.81 23.8825 56.025L25.6775 62.5875H39.495L41.29 56.025C41.8625 55.81 42.435 55.57 43.0025 55.31L48.915 58.6825L58.685 48.915L55.3075 43C55.5675 42.435 55.8075 41.8625 56.0225 41.2875L62.585 39.4925V35H77.5V37.5C77.5 41.635 80.865 45 85 45H125C129.135 45 132.5 41.635 132.5 37.5V35H140C146.893 35 152.5 40.6075 152.5 47.5V65C152.5 71.8925 146.893 77.5 140 77.5H107.5V75C107.5 70.865 104.135 67.5 100 67.5H60C55.865 67.5 52.5 70.865 52.5 75V77.5H20C10.3525 77.5 2.5 85.3525 2.5 95V115C2.5 124.647 10.3525 132.5 20 132.5H27.5V135C27.5 139.135 30.865 142.5 35 142.5H75C79.135 142.5 82.5 139.135 82.5 135V132.5H102.627C103.895 146.495 115.68 157.5 130 157.5C145.163 157.5 157.5 145.162 157.5 130C157.5 114.837 145.163 102.5 130 102.5C115.68 102.5 103.895 113.505 102.627 127.5H82.5V125C82.5 120.865 79.135 117.5 75 117.5H35C30.865 117.5 27.5 120.865 27.5 125V127.5H20C13.1075 127.5 7.5 121.892 7.5 115V95C7.5 88.1075 13.1075 82.5 20 82.5H52.5V85C52.5 89.135 55.865 92.5 60 92.5ZM57.5875 35.68L52.105 37.18L51.7025 38.4925C51.3425 39.65 50.8625 40.8025 50.2725 41.9175L49.6275 43.1325L52.4525 48.08L48.0825 52.4525L43.1325 49.63L41.92 50.2725C40.8075 50.8625 39.655 51.3425 38.495 51.7L37.185 52.105L35.6825 57.5875H29.5L27.9975 52.105L26.6875 51.7C25.5325 51.3425 24.38 50.865 23.2625 50.2725L22.0475 49.63L17.1 52.4525L12.725 48.08L15.55 43.1325L14.905 41.9175C14.315 40.8025 13.8325 39.65 13.475 38.4925L13.0725 37.18L7.59 35.68V29.495L13.0725 27.9975L13.4775 26.685C13.835 25.5275 14.315 24.375 14.905 23.2625L15.55 22.045L12.725 17.0975L17.095 12.725L22.0425 15.5475L23.2575 14.905C24.38 14.3125 25.5325 13.83 26.6825 13.475L27.9925 13.07L29.495 7.58749H35.6775L37.18 13.07L38.49 13.475C39.645 13.8325 40.7975 14.3125 41.915 14.905L43.1275 15.5475L48.0775 12.725L52.4475 17.0975L49.6225 22.045L50.2675 23.26C50.8575 24.3725 51.34 25.525 51.695 26.6825L52.1 27.995L57.5825 29.4925V35.68H57.5875ZM127.5 37.5C127.5 38.8775 126.38 40 125 40H85C83.62 40 82.5 38.8775 82.5 37.5V27.5C82.5 26.1225 83.62 25 85 25H125C126.38 25 127.5 26.1225 127.5 27.5V37.5ZM130 107.5C142.408 107.5 152.5 117.592 152.5 130C152.5 142.407 142.408 152.5 130 152.5C117.592 152.5 107.5 142.407 107.5 130C107.5 117.592 117.592 107.5 130 107.5ZM32.5 125C32.5 123.62 33.62 122.5 35 122.5H75C76.38 122.5 77.5 123.62 77.5 125V135C77.5 136.38 76.38 137.5 75 137.5H35C33.62 137.5 32.5 136.38 32.5 135V125ZM57.5 75C57.5 73.6225 58.62 72.5 60 72.5H100C101.38 72.5 102.5 73.6225 102.5 75V85C102.5 86.38 101.38 87.5 100 87.5H60C58.62 87.5 57.5 86.38 57.5 85V75Z"
    fill="#7DBE3B"/>
  <path d="M82.5 77.5H87.5V82.5H82.5V77.5Z" fill="#7DBE3B"/>
  <path d="M72.5 77.5H77.5V82.5H72.5V77.5Z" fill="#7DBE3B"/>
  <path d="M62.5 77.5H67.5V82.5H62.5V77.5Z" fill="#7DBE3B"/>
  <path d="M92.5 77.5H97.5V82.5H92.5V77.5Z" fill="#7DBE3B"/>
  <path d="M47.5 127.5H52.5V132.5H47.5V127.5Z" fill="#7DBE3B"/>
  <path d="M67.5 127.5H72.5V132.5H67.5V127.5Z" fill="#7DBE3B"/>
  <path d="M57.5 127.5H62.5V132.5H57.5V127.5Z" fill="#7DBE3B"/>
  <path d="M37.5 127.5H42.5V132.5H37.5V127.5Z" fill="#7DBE3B"/>
</svg>
