<svg width="30" height="30" viewBox="0 0 30 30" fill="none" xmlns="http://www.w3.org/2000/svg">
  <path
    d="M29.7843 11.1109C29.5286 10.2701 29.0177 9.53659 28.3273 9.01892C27.6369 8.50124 26.8036 8.22684 25.9505 8.23631H20.4893L18.8305 2.89524C18.5697 2.05452 18.0571 1.3211 17.3667 0.800744C16.6763 0.280392 15.8438 0 14.9893 0C14.1347 0 13.3022 0.280392 12.6118 0.800744C11.9214 1.3211 11.4089 2.05452 11.148 2.89524L9.48925 8.23631H4.028C3.17768 8.23756 2.34949 8.51638 1.66173 9.03296C0.973965 9.54953 0.461806 10.2774 0.198407 11.1127C-0.0649926 11.9479 -0.0661585 12.8478 0.195076 13.6838C0.45631 14.5197 0.966581 15.249 1.653 15.7675L6.098 19.1251L4.408 24.532C4.13489 25.3706 4.13143 26.2779 4.39814 27.1187C4.66485 27.9595 5.18744 28.6887 5.888 29.1977C6.57657 29.723 7.411 30.0044 8.26695 29.9999C9.1229 29.9955 9.95456 29.7055 10.638 29.1731L14.9893 25.8647L19.3418 29.1693C20.0291 29.6915 20.859 29.9752 21.7122 29.9795C22.5654 29.9838 23.398 29.7085 24.0902 29.1932C24.7824 28.6778 25.2986 27.949 25.5646 27.1114C25.8306 26.2739 25.8327 25.3708 25.5705 24.532L23.8805 19.1251L28.3305 15.7675C29.0248 15.2556 29.541 14.5263 29.8029 13.6876C30.0647 12.8489 30.0582 11.9454 29.7843 11.1109ZM26.8555 13.682L21.6755 17.5935C21.4627 17.7538 21.3044 17.9795 21.2232 18.2383C21.1419 18.4971 21.1419 18.7758 21.223 19.0347L23.1918 25.3236C23.2914 25.6426 23.2905 25.9859 23.1893 26.3044C23.0881 26.6228 22.8918 26.8999 22.6285 27.0958C22.3653 27.2917 22.0487 27.3963 21.7243 27.3946C21.3998 27.3929 21.0843 27.285 20.823 27.0863L15.7293 23.2122C15.5147 23.0494 15.2555 22.9616 14.9893 22.9616C14.7231 22.9616 14.4638 23.0494 14.2493 23.2122L9.1555 27.0863C8.89436 27.2876 8.57793 27.3978 8.25209 27.4009C7.92624 27.4039 7.60793 27.2997 7.34329 27.1033C7.07865 26.9069 6.88144 26.6285 6.78025 26.3085C6.67906 25.9885 6.67915 25.6435 6.7805 25.3236L8.7555 19.0347C8.83665 18.7758 8.83659 18.4971 8.75533 18.2383C8.67407 17.9795 8.51577 17.7538 8.303 17.5935L3.123 13.682C2.86213 13.4846 2.6683 13.2072 2.56918 12.8893C2.47007 12.5713 2.47074 12.2292 2.57111 11.9116C2.67148 11.5941 2.86641 11.3175 3.12806 11.1213C3.3897 10.925 3.70468 10.8193 4.028 10.819H10.403C10.6676 10.819 10.9255 10.7322 11.1393 10.5712C11.3532 10.4101 11.512 10.1831 11.593 9.92282L13.5305 3.68427C13.63 3.36502 13.8249 3.08661 14.0873 2.88911C14.3496 2.69161 14.6659 2.5852 14.9905 2.5852C15.3151 2.5852 15.6314 2.69161 15.8938 2.88911C16.1561 3.08661 16.3511 3.36502 16.4505 3.68427L18.388 9.92282C18.469 10.1831 18.6278 10.4101 18.8417 10.5712C19.0555 10.7322 19.3134 10.819 19.578 10.819H25.953C26.2763 10.8193 26.5913 10.925 26.853 11.1213C27.1146 11.3175 27.3095 11.5941 27.4099 11.9116C27.5103 12.2292 27.5109 12.5713 27.4118 12.8893C27.3127 13.2072 27.1189 13.4846 26.858 13.682H26.8555Z"
    fill="#333333"/>
</svg>
