<svg width="164" height="164" viewBox="0 0 164 164" fill="none" xmlns="http://www.w3.org/2000/svg">
  <path
    d="M162.821 60.7392C161.423 56.1428 158.63 52.1331 154.856 49.3032C151.082 46.4732 146.526 44.9732 141.863 45.0249H112.008L102.94 15.8271C101.514 11.2311 98.7121 7.22175 94.938 4.37716C91.164 1.53257 86.613 -0.000244141 81.9413 -0.000244141C77.2695 -0.000244141 72.7185 1.53257 68.9445 4.37716C65.1704 7.22175 62.3684 11.2311 60.9424 15.8271L51.8746 45.0249H22.0198C17.3713 45.0318 12.8439 46.556 9.08412 49.3799C5.32434 52.2038 2.52454 56.183 1.08462 60.749C-0.355293 65.315 -0.361666 70.2344 1.06641 74.8044C2.49449 79.3743 5.28397 83.3612 9.03642 86.1955L33.3358 104.55L24.0971 134.108C22.6041 138.692 22.5852 143.652 24.0432 148.249C25.5012 152.845 28.358 156.831 32.1878 159.614C35.9519 162.485 40.5134 164.024 45.1926 163.999C49.8718 163.975 54.4182 162.39 58.1544 159.48L81.9413 141.393L105.735 159.458C109.492 162.314 114.029 163.864 118.693 163.888C123.358 163.911 127.909 162.406 131.693 159.589C135.477 156.772 138.299 152.787 139.753 148.209C141.207 143.63 141.219 138.693 139.785 134.108L130.547 104.55L154.873 86.1955C158.669 83.3968 161.491 79.41 162.922 74.8252C164.354 70.2404 164.318 65.3014 162.821 60.7392ZM146.81 74.7945L118.493 96.1776C117.33 97.0541 116.464 98.2878 116.02 99.7026C115.576 101.117 115.575 102.641 116.019 104.056L126.782 138.435C127.326 140.179 127.322 142.056 126.768 143.797C126.215 145.538 125.142 147.053 123.703 148.124C122.264 149.194 120.533 149.766 118.759 149.757C116.986 149.748 115.261 149.158 113.832 148.071L85.9866 126.893C84.8138 126.003 83.3965 125.523 81.9413 125.523C80.486 125.523 79.0688 126.003 77.8959 126.893L50.0501 148.071C48.6225 149.172 46.8927 149.774 45.1114 149.791C43.3301 149.808 41.59 149.238 40.1433 148.164C38.6966 147.091 37.6185 145.569 37.0654 143.819C36.5122 142.07 36.5127 140.184 37.0668 138.435L47.8634 104.056C48.307 102.641 48.3067 101.117 47.8625 99.7026C47.4183 98.2878 46.5529 97.0541 45.3898 96.1776L17.0724 74.7945C15.6463 73.7158 14.5867 72.1991 14.0449 70.4611C13.503 68.723 13.5067 66.8525 14.0554 65.1168C14.6041 63.381 15.6697 61.8688 17.1 60.7961C18.5304 59.7234 20.2523 59.1451 22.0198 59.1438H56.8698C58.3165 59.1437 59.7259 58.6693 60.8949 57.7889C62.064 56.9085 62.9324 55.6674 63.3751 54.2445L73.9668 20.1404C74.5104 18.3952 75.5761 16.8732 77.0103 15.7936C78.4446 14.7139 80.1735 14.1322 81.9481 14.1322C83.7227 14.1322 85.4516 14.7139 86.8858 15.7936C88.3201 16.8732 89.3857 18.3952 89.9294 20.1404L100.521 54.2445C100.964 55.6674 101.832 56.9085 103.001 57.7889C104.17 58.6693 105.58 59.1437 107.026 59.1438H141.876C143.644 59.1451 145.366 59.7234 146.796 60.7961C148.226 61.8688 149.292 63.381 149.841 65.1168C150.389 66.8525 150.393 68.723 149.851 70.4611C149.309 72.1991 148.25 73.7158 146.824 74.7945H146.81Z"
    fill="#7DBE3B"/>
</svg>
