<svg width="43" height="43" viewBox="0 0 43 43" fill="none" xmlns="http://www.w3.org/2000/svg">
  <path
    d="M41.2367 30.7728C41.1622 30.7109 32.7402 24.6838 30.455 25.0789C29.3567 25.273 28.7281 26.0211 27.4695 27.5216C27.267 27.7634 26.7791 28.3414 26.4022 28.7534C25.6067 28.4943 24.8308 28.1785 24.0805 27.8084C20.207 25.9227 17.0773 22.793 15.1916 18.9195C14.8215 18.1692 14.5057 17.3933 14.2466 16.5978C14.66 16.2195 15.2394 15.7316 15.4869 15.5234C16.9789 14.2719 17.727 13.6433 17.9211 12.5436C18.3191 10.2669 12.2891 1.83781 12.2272 1.76188C11.9526 1.37242 11.5949 1.0488 11.1801 0.814367C10.7652 0.579935 10.3034 0.440542 9.82812 0.40625C7.38406 0.40625 0.40625 9.45687 0.40625 10.9827C0.40625 11.0712 0.534219 20.0769 11.6394 31.3733C22.9231 42.4658 31.9288 42.5938 32.0173 42.5938C33.5431 42.5938 42.5938 35.6159 42.5938 33.1719C42.5595 32.6964 42.42 32.2345 42.1853 31.8196C41.9506 31.4047 41.6266 31.0471 41.2367 30.7728ZM31.8627 39.7728C30.6336 39.6716 23.0764 38.6745 13.6278 29.3919C4.29734 19.8927 3.32562 12.3144 3.22859 11.1402C5.07187 8.247 7.29799 5.61644 9.84641 3.32C9.90266 3.37625 9.97719 3.46062 10.0728 3.57031C12.0273 6.23829 13.7109 9.09444 15.0988 12.0964C14.6474 12.5504 14.1704 12.9782 13.67 13.3775C12.894 13.9688 12.1815 14.6389 11.5437 15.3772L11.202 15.8553L11.3033 16.4333C11.6009 17.7224 12.0567 18.9699 12.6603 20.1472C14.823 24.5882 18.4115 28.1762 22.8528 30.3383C24.0299 30.9428 25.2774 31.3991 26.5667 31.6967L27.1447 31.798L27.6228 31.4562C28.3639 30.8157 29.0368 30.1004 29.6309 29.3216C30.0711 28.7956 30.6603 28.0939 30.8825 27.8956C33.893 29.2821 36.7565 30.9678 39.4297 32.9272C39.5464 33.0256 39.628 33.1016 39.6828 33.1508C37.3867 35.7 34.7561 37.9266 31.8627 39.77V39.7728Z"
    fill="#7DBE3B"/>
</svg>
