<svg width="45" height="33" viewBox="0 0 45 33" fill="none" xmlns="http://www.w3.org/2000/svg">
  <path
    d="M41.0449 0.679688H3.95508C1.77697 0.679688 0 2.31818 0 4.33053V28.6695C0 30.675 1.76906 32.3203 3.95508 32.3203H41.0449C43.2176 32.3203 45 30.6873 45 28.6695V4.33053C45 2.325 43.2309 0.679688 41.0449 0.679688ZM40.4988 3.11358L22.5838 19.6505L4.51397 3.11358H40.4988ZM2.63672 28.1655V4.82291L15.3351 16.4439L2.63672 28.1655ZM4.50114 29.8864L17.2075 18.1575L21.6598 22.232C22.1752 22.7037 23.0069 22.7021 23.5201 22.2282L27.8613 18.221L40.4989 29.8864H4.50114ZM42.3633 28.1654L29.7258 16.5L42.3633 4.83451V28.1654Z"
    fill="#7DBE3B"/>
</svg>
